<?xml version="1.0" encoding="UTF-8" standalone="no"?>
<!-- Created with Inkscape (http://www.inkscape.org/) -->

<svg
   width="512"
   height="512"
   viewBox="0 0 135.46666 135.46667"
   version="1.1"
   id="svg1"
   xml:space="preserve"
   xmlns="http://www.w3.org/2000/svg"
   xmlns:svg="http://www.w3.org/2000/svg"><defs
     id="defs1" /><path
     id="path1"
     style="fill:#ffffff;stroke-width:0.264583;fill-opacity:1;stroke:none"
     d="M 135.46666,67.73333 A 67.73333,67.73333 0 0 1 67.73333,135.46666 67.73333,67.73333 0 0 1 0,67.73333 67.73333,67.73333 0 0 1 67.73333,0 67.73333,67.73333 0 0 1 135.46666,67.73333 Z" /><g
     id="layer1"><g
       id="g14"
       transform="translate(146.90109,-173.31687)"><g
         id="g4130"
         transform="translate(-157.01736,58.096422)"><path
           id="path3996"
           style="fill:#6699ff;stroke-width:0.264583"
           d="m 82.283549,236.67292 c 1.930622,-0.60164 3.719803,-1.62777 5.120129,-2.93649 l 1.048996,-0.98038 15.700856,-0.078 c 15.15816,-0.0753 15.7312,-0.0962 16.57902,-0.60712 1.51968,-0.91573 2.03519,-2.06798 2.01234,-4.49792 -0.0163,-1.73465 -0.15696,-2.42137 -0.7793,-3.80498 -0.45321,-1.00761 -0.76521,-2.16453 -0.77384,-2.86945 l -0.0144,-1.18113 1.61718,-0.58977 c 3.53453,-1.289 5.98278,-3.45001 7.52402,-6.64124 0.80496,-1.66673 0.90138,-2.11758 0.98903,-4.62488 0.11525,-3.29708 -0.36044,-5.16133 -1.91438,-7.50243 -2.00049,-3.01388 -5.46478,-5.18546 -9.1982,-5.76588 l -2.02306,-0.31452 -0.40588,-1.79732 c -0.44526,-1.97166 -1.41032,-4.07781 -2.19217,-4.78423 -1.29541,-1.1704 -5.98254,-2.42025 -10.4769,-2.79371 l -2.32203,-0.19295 2.48006,-2.46808 2.48006,-2.46808 0.9003,0.54886 c 1.1269,0.687 3.34286,0.7349 4.67843,0.10113 0.52123,-0.24734 2.75819,-2.30116 4.97103,-4.56406 5.69058,-5.81931 5.53834,-5.61146 5.53834,-7.56107 0,-1.37061 -0.12291,-1.80297 -0.78355,-2.75626 -0.68203,-0.98419 -0.73144,-1.16977 -0.3814,-1.43259 0.91685,-0.6884 3.02731,-3.58784 3.71534,-5.10432 2.53908,-5.59632 0.73973,-12.30066 -4.20197,-15.6565 -2.10448,-1.42912 -3.74875,-1.95503 -6.56243,-2.09895 -2.69903,-0.13806 -4.73184,0.26757 -7.20847,1.43839 -1.61538,0.76367 -2.73747,1.82883 -9.008851,8.55173 -6.935457,7.4348 -11.012794,11.79631 -12.991666,13.89714 -1.099957,1.16774 -4.559765,4.84173 -7.688463,8.16441 -3.128698,3.32269 -5.818616,6.29632 -5.977599,6.60808 -0.275682,0.54061 -0.498313,1.71976 -1.193543,6.32152 -0.170386,1.12779 -0.39388,2.05052 -0.496655,2.05052 -0.102774,0 -0.890111,-0.24259 -1.749636,-0.53908 -6.245037,-2.15424 -13.332703,-2.6637 -20.265331,-1.45669 -0.664046,0.11562 -0.634373,0.0532 0.450308,-0.94658 0.638656,-0.5887 1.464574,-1.67916 1.835369,-2.42324 0.667001,-1.3385 0.674172,-1.42141 0.674172,-7.79457 v -6.44168 l 1.14673,-1.24543 c 2.725097,-2.95966 4.104643,-6.05478 4.341535,-9.74056 0.454742,-7.07528 -4.184063,-13.5833 -11.085237,-15.55207 -3.090029,-0.88153 -7.547467,-0.4295 -10.807194,1.09597 -2.019625,0.94512 -5.468759,4.43146 -6.553593,6.62428 -1.671007,3.37767 -2.096699,8.18006 -1.025553,11.56965 0.535644,1.69501 2.068558,4.1978 3.681191,6.01027 l 1.26142,1.41773 0.0615,6.33757 0.0615,6.33756 0.74373,1.51454 c 1.311188,2.67011 4.165693,4.43309 7.326061,4.52466 l 1.455209,0.0422 -0.938128,0.97967 c -0.857234,0.8952 -1.773875,2.97027 -2.212745,5.00916 -0.141967,0.65956 -0.255087,0.70232 -2.335617,0.88304 -5.160829,0.44827 -9.35766,3.17089 -11.437191,7.41967 -2.391516,4.88621 -1.532752,10.32167 2.2399,14.17721 1.770465,1.80937 4.712887,3.3427 6.91505,3.60351 0.733408,0.0869 1.387277,0.29816 1.453045,0.46954 0.215225,0.56087 -0.384239,1.66813 -1.147079,2.11875 -1.421891,0.83993 -2.018993,2.13869 -2.143371,4.66207 -0.136077,2.76071 0.300415,3.9055 1.889876,4.95659 l 1.064579,0.704 15.420739,0.0208 15.420739,0.0208 1.297572,1.21373 c 3.473418,3.24897 9.181317,4.38149 14.200129,2.81748 z M 37.436618,225.96041 c 3.2e-5,-0.15934 0.217792,-0.48676 0.483912,-0.7276 0.439923,-0.39813 2.031413,-0.43703 17.528645,-0.42851 14.277805,0.008 17.152169,0.0708 17.706249,0.3875 l 0.661458,0.37813 -0.688123,0.009 c -0.378465,0.005 -1.033309,0.12765 -1.455208,0.2722 -1.123069,0.38478 -34.237007,0.49013 -34.236933,0.10892 z m 43.920889,-0.0957 c 0,-0.11833 0.293468,-0.40743 0.65215,-0.64245 0.583258,-0.38216 2.45051,-0.4273 17.676513,-0.4273 14.27895,0 17.10712,0.0605 17.53754,0.37524 0.28224,0.20638 0.41408,0.47427 0.29296,0.59531 -0.28508,0.2849 -36.159163,0.38331 -36.159163,0.0992 z m -4.7625,-4.78956 c -2.539806,-1.72175 -5.579318,-3.07048 -8.93134,-3.96315 -3.772088,-1.00453 -7.180564,-1.30208 -15.01345,-1.31062 -7.251163,-0.008 -9.392708,-0.13076 -9.392708,-0.53884 0,-0.22976 3.966586,-0.43972 12.832291,-0.67924 3.813654,-0.10303 6.219931,-0.27374 6.445742,-0.45729 0.934892,-0.75992 0.755052,-2.38049 -0.301376,-2.71579 -0.961779,-0.30526 -8.479478,-0.22232 -12.891241,0.14221 -4.462748,0.36875 -6.372333,0.26958 -7.232834,-0.37561 -0.470072,-0.35246 -0.463439,-0.54452 0.202821,-5.87468 1.498172,-11.98549 1.795807,-13.85709 2.240574,-14.08926 0.697841,-0.36426 4.208396,-1.09376 7.170689,-1.49008 5.544672,-0.7418 10.856005,-0.30177 15.213541,1.26042 1.800479,0.64548 3.836458,1.6199 3.836458,1.83614 0,0.12721 -0.189441,1.39087 -0.420984,2.80814 -0.688345,4.21338 -0.553002,5.37593 0.701379,6.02459 0.730671,0.37785 1.080715,0.31519 6.529686,-1.16893 3.166695,-0.8625 7.186377,-1.94953 8.932627,-2.4156 1.74625,-0.46608 3.821567,-1.08906 4.611817,-1.38439 1.25658,-0.46961 1.798629,-0.51499 4.321098,-0.36179 2.689346,0.16334 7.807413,0.98922 8.400033,1.35548 0.14568,0.09 0.26184,1.38733 0.26184,2.92434 0,2.40973 0.0676,2.83008 0.52917,3.29168 1.00783,1.00782 3.1409,0.34501 3.19306,-0.99219 0.01,-0.25466 0.003,-1.43388 -0.0157,-2.62049 -0.0186,-1.1866 0.0626,-2.21681 0.18038,-2.28935 0.26257,-0.16168 4.49111,0.92086 5.2882,1.35382 0.48642,0.26421 0.59105,0.241 0.67214,-0.14912 0.0899,-0.43246 0.53527,3.26801 0.89974,7.47545 0.0882,1.01865 0.25197,2.36463 0.36385,2.99107 0.18319,1.02585 0.13998,1.18054 -0.435,1.55728 -0.96893,0.63487 -3.69363,0.70765 -9.00298,0.24047 -7.701516,-0.67767 -11.742097,-0.51327 -19.135307,0.77853 -2.882293,0.50362 -3.661264,0.73446 -4.034895,1.19571 -0.530355,0.65473 -0.578435,1.12587 -0.18913,1.85329 0.350801,0.65548 1.133793,0.6531 5.015426,-0.0152 5.643774,-0.97167 10.376931,-1.17459 16.189096,-0.69403 2.84196,0.23498 6.27073,0.42723 7.6195,0.42723 2.07349,0 2.40475,0.0573 2.14448,0.3709 -0.25079,0.30218 -2.18083,0.39386 -10.4173,0.49483 -8.866826,0.1087 -10.402169,0.18931 -12.490718,0.65587 -4.526643,1.01119 -8.193852,2.49004 -11.054667,4.45794 -0.71931,0.49479 -1.383774,0.89912 -1.476584,0.8985 -0.09282,-6.3e-4 -0.704538,-0.36434 -1.359382,-0.80826 z m -6.961242,-6.66509 c 0.225282,-0.30129 0.244009,-0.51924 0.122375,-1.42436 -0.06398,-0.47614 -1.347751,-0.60383 -1.775026,-0.17655 -0.464672,0.46467 -0.493435,1.18515 -0.06444,1.61414 0.414647,0.41465 1.402842,0.40704 1.717091,-0.0132 z m 20.454992,-5.62658 c 2.964471,-0.31129 5.931114,-0.40704 10.704423,-0.34552 l 6.60339,0.0851 0.39929,-0.70952 c 0.3633,-0.64554 0.35679,-0.7565 -0.0722,-1.23057 -0.25934,-0.28657 -0.85071,-0.59206 -1.31414,-0.67885 -1.9229,-0.36013 -14.689875,-0.18535 -18.861531,0.25823 -5.181933,0.55099 -5.39669,0.62151 -5.39669,1.77208 0,1.74015 -0.271859,1.71107 7.9375,0.84903 z M 73.793218,208.3143 c 0.177882,-0.282 0.180406,-0.67398 0.0075,-1.16632 -0.244001,-0.69481 -0.38514,-0.75415 -2.238798,-0.94119 -1.088107,-0.1098 -6.681345,-0.16933 -12.429418,-0.1323 l -10.451041,0.0673 -0.08683,0.75984 c -0.04776,0.41791 0.01331,0.85997 0.135686,0.98235 0.122386,0.12239 4.804897,0.29554 10.405581,0.38478 5.600684,0.0892 10.897438,0.25384 11.770563,0.36577 2.033407,0.26068 2.556936,0.2026 2.886752,-0.32027 z m 18.366221,-5.1126 c 7.339425,-0.1904 7.718901,-0.26141 7.718901,-1.44439 0,-0.28065 -0.253858,-0.76412 -0.564129,-1.0744 -0.552463,-0.55246 -0.679699,-0.56035 -6.151562,-0.38147 -6.302679,0.20605 -9.849263,0.53008 -10.349976,0.94564 -0.546984,0.45395 -0.633349,1.24521 -0.202986,1.85964 0.335317,0.47873 0.576414,0.54713 1.49211,0.42334 0.600692,-0.0812 4.226631,-0.22897 8.057642,-0.32836 z m -24.890994,-0.98487 c 0.430544,-0.31351 0.425217,-1.35574 -0.0088,-1.71592 -0.213103,-0.17686 -3.456252,-0.35177 -8.710906,-0.4698 -9.516392,-0.21376 -10.089398,-0.13772 -9.947385,1.31995 l 0.0801,0.82202 8.466666,0.14247 c 10.556954,0.17763 9.729726,0.1857 10.120312,-0.0987 z m -7.573597,-6.04149 c 0.342194,-0.53979 0.275072,-1.05609 -0.206473,-1.58819 -0.396779,-0.43844 -0.936939,-0.48349 -5.754687,-0.47996 -5.700177,0.004 -6.567733,0.16852 -6.726176,1.27406 -0.195469,1.36388 0.08722,1.41923 6.522865,1.27734 4.54561,-0.10022 5.993619,-0.21373 6.164471,-0.48325 z m -30.429459,13.93524 c -0.879515,-2.08777 -0.479793,-5.41534 0.90119,-7.50215 1.477672,-2.23291 4.741176,-4.096 6.929544,-3.95597 2.04466,0.13082 1.533922,0.70639 -1.637138,1.84494 -2.02003,0.72527 -4.092985,2.63708 -4.91477,4.53271 -0.375923,0.86715 -0.660984,2.2083 -0.770548,3.62527 -0.164194,2.12348 -0.192552,2.20467 -0.508278,1.4552 z m 93.763991,-8.78785 c -0.7276,-0.38136 -1.97776,-0.89739 -2.77812,-1.14672 -1.23011,-0.38321 -1.46816,-0.56053 -1.53893,-1.14637 -0.046,-0.38117 -0.0288,-0.69304 0.0383,-0.69304 0.0671,0 0.89099,0.23752 1.83087,0.52782 1.61324,0.49827 4.1677,2.29673 4.1677,2.93425 0,0.36017 -0.26394,0.28714 -1.71979,-0.47594 z M 76.886687,194.4059 c -0.298392,-0.41905 -0.901581,-0.91064 -1.340416,-1.09241 -0.613985,-0.25432 -0.76948,-0.46057 -0.674648,-0.89484 0.06778,-0.31039 0.374711,-2.35028 0.682072,-4.5331 0.307358,-2.18281 0.605382,-4.01588 0.662273,-4.07348 0.05689,-0.0576 0.90959,0.19011 1.894885,0.55047 l 1.791446,0.65521 0.152111,1.74784 c 0.178303,2.04884 0.449065,2.45943 1.775545,2.69249 2.201204,0.38676 3.754951,0.96472 4.04364,1.50414 0.175353,0.32765 0.198522,0.64893 0.05701,0.79045 -0.131138,0.13114 -1.451052,0.6508 -2.933145,1.1548 -2.26169,0.7691 -4.650858,1.72492 -5.390028,2.15634 -0.09801,0.0572 -0.422346,-0.23885 -0.72074,-0.65791 z m 22.916945,-3.97635 -2.05908,-0.16275 0.830305,-0.90687 0.830304,-0.90688 2.683989,0.0654 c 2.78797,0.0679 8.10507,0.8687 9.476,1.42714 0.73047,0.29756 0.65551,0.32122 -1.01735,0.32122 -0.99325,0 -3.35373,0.0732 -5.2455,0.16275 -1.89177,0.0895 -4.36617,0.0895 -5.498668,0 z m -15.79336,-4.78307 c -0.372456,-0.23554 -0.138779,-0.64886 1.051402,-1.85967 0.07276,-0.074 0.660855,-0.7299 1.306875,-1.4575 2.16278,-2.43591 7.785028,-8.43142 11.289066,-12.03855 1.908387,-1.96453 3.915945,-4.04177 4.461235,-4.61609 l 0.99144,-1.04423 0.37505,0.89198 c 0.20628,0.49059 0.34229,0.98659 0.30226,1.10222 -0.04,0.11563 -1.9829,2.14867 -4.317465,4.51787 -2.334561,2.36919 -6.196197,6.39122 -8.581411,8.93784 -5.723778,6.11109 -5.852281,6.21507 -6.878452,5.56613 z m -5.364744,-5.21935 c -0.254661,-0.0666 -0.463021,-0.21885 -0.463021,-0.33844 0,-0.11958 3.303984,-3.7186 7.342187,-7.99781 8.123719,-8.60855 18.259436,-19.5847 18.807906,-20.36742 0.23086,-0.32945 0.52875,-0.44837 0.8599,-0.34326 0.38328,0.12165 0.50667,0.0326 0.50667,-0.3656 0,-0.75295 3.34157,-4.07068 4.79836,-4.76414 1.69747,-0.80802 3.92601,-1.1329 5.59722,-0.81596 1.60754,0.30487 3.36725,1.11158 4.03554,1.85003 0.47559,0.52552 0.47263,0.52604 -0.55364,0.0972 -1.53363,-0.64079 -5.63247,-0.41623 -7.32966,0.40157 -1.49154,0.7187 -5.48948,4.45623 -5.48948,5.13191 0,0.45498 1.48591,2.02969 1.91523,2.02969 0.31491,0 4.17018,3.81714 4.17018,4.12893 0,0.14849 -0.33688,0.59274 -0.74863,0.98722 l -0.74864,0.71724 -1.83105,-1.65893 c -1.00708,-0.91242 -2.24777,-2.04339 -2.75709,-2.51328 -1.17526,-1.08426 -2.18237,-1.32318 -3.08487,-0.73185 -0.6052,0.39655 -0.66724,0.57884 -0.55025,1.61673 0.11456,1.01644 0.045,1.23812 -0.53072,1.69098 -0.4981,0.3918 -0.90195,0.4829 -1.62683,0.36698 -0.90922,-0.14538 -1.045966,-0.066 -2.395585,1.39121 -2.353254,2.54081 -4.989467,5.32785 -8.218913,8.68915 -4.339632,4.51681 -9.272248,9.8253 -9.708996,10.44884 -0.354483,0.5061 -0.977627,0.61506 -1.995818,0.34898 z m -41.091126,-0.89952 c -0.08193,-0.13256 -0.112164,-0.25439 -0.0672,-0.27074 0.402408,-0.14629 5.639131,-0.1186 6.564053,0.0347 0.89162,0.14779 0.360056,0.21025 -2.116666,0.24871 -1.819011,0.0282 -3.515178,0.0912 -3.769262,0.13985 -0.254085,0.0487 -0.529,-0.02 -0.610928,-0.15254 z m 73.480538,-2.86734 c 0.20133,-0.55947 7.98622,-8.48617 8.33435,-8.48617 0.26603,0 0.31009,0.12329 0.14775,0.41339 -0.49045,0.87638 -7.80722,8.31786 -8.17846,8.31786 -0.21551,0 -0.35215,-0.11029 -0.30364,-0.24508 z m -73.598264,-3.06221 c 0,-0.33047 0.52021,-0.39628 3.108854,-0.39327 1.70987,0.002 3.400134,0.0815 3.756144,0.17675 1.244867,0.33296 -0.231807,0.57533 -3.623852,0.59479 -2.712895,0.0156 -3.241146,-0.0461 -3.241146,-0.37827 z m 2.645833,-13.14279 c -1.361585,-0.38637 -3.583262,-2.16709 -4.362372,-3.49654 -2.227046,-3.80017 -1.032564,-8.29322 2.690817,-10.12151 1.368462,-0.67196 1.818177,-0.7553 4.052805,-0.75105 2.1414,0.004 2.73078,0.10597 3.980823,0.68821 1.603925,0.74708 3.113357,1.95913 4.012713,3.22217 0.31746,0.44583 0.464486,0.74079 0.326728,0.65547 -0.152648,-0.0945 -0.220723,0.791 -0.174299,2.26733 0.07306,2.32355 0.0399,2.48727 -0.812361,4.00996 -0.961197,1.71732 -2.634001,3.07936 -4.376274,3.56327 -1.204741,0.33461 -4.099176,0.31438 -5.33858,-0.0373 z m -6.408871,30.06112 c 0.713485,-0.49975 0.792262,-1.83434 0.150156,-2.54386 -0.577744,-0.6384 -1.811431,-0.61579 -2.472534,0.0453 -0.676071,0.67607 -0.67034,1.33666 0.0192,2.21327 0.620651,0.78903 1.439203,0.89042 2.303175,0.28527 z m 91.632342,0.0717 c 0.89355,-0.68055 0.82082,-2.25978 -0.1334,-2.89693 -0.50689,-0.33846 -1.55465,-0.21852 -2.05622,0.23539 -0.64652,0.58509 -0.66001,2.34364 -0.0208,2.71593 0.6276,0.36554 1.69354,0.33931 2.21046,-0.0544 z m -0.18601,-5.8496 c 2.7925,-1.16678 2.09497,-5.18732 -0.89996,-5.18732 -0.86195,0 -1.26588,0.16684 -1.87244,0.7734 -1.29618,1.29618 -0.92591,3.71582 0.6754,4.41351 1.01479,0.44214 1.03978,0.44215 2.097,5.3e-4 z m -63.091613,-2.71535 c 0.357632,-0.45466 0.494596,-0.89866 0.38768,-1.25677 -0.612523,-2.05162 -3.401223,-1.72867 -3.341073,0.38692 0.0463,1.62854 1.92205,2.18099 2.953393,0.86985 z m 3.301865,-5.02926 c 0.86211,-0.41111 1.015386,-0.41111 2.288317,0 1.856219,0.59949 2.217463,0.56225 3.217606,-0.3317 0.819703,-0.73266 0.860502,-0.85649 0.794573,-2.41162 -0.06555,-1.54617 -0.01669,-1.69773 0.859896,-2.66802 1.019754,-1.12874 1.169638,-2.00208 0.515061,-3.00109 -0.428844,-0.6545 -1.620789,-1.20111 -2.619136,-1.20111 -0.394298,0 -0.760958,-0.33397 -1.17452,-1.06981 -0.837872,-1.49079 -1.576229,-2.10519 -2.529906,-2.10519 -1.071735,0 -1.880214,0.59305 -2.521133,1.84936 -0.445402,0.87306 -0.730038,1.0815 -1.968494,1.44153 -0.845341,0.24574 -1.618083,0.664 -1.857015,1.00512 -0.798383,1.13985 -0.351391,2.89898 0.982339,3.86598 0.410554,0.29767 0.466183,0.58265 0.335704,1.7198 -0.180052,1.56916 0.188364,2.50155 1.188376,3.00753 0.878088,0.44429 1.388668,0.42361 2.488332,-0.10078 z m 3.207628,-16.13447 c 0.695965,-0.75096 0.864912,-2.10593 0.376399,-3.01873 -0.430184,-0.8038 -1.780146,-1.37917 -2.79096,-1.18955 -1.866707,0.3502 -2.658184,2.91502 -1.314265,4.25894 0.94624,0.94624 2.828631,0.92067 3.728826,-0.0507 z m 16.662105,-2.28065 c 0.383326,-0.32972 0.781236,-1.01157 0.884241,-1.51521 0.165536,-0.80939 0.327091,-0.9552 1.391351,-1.25579 2.920052,-0.82474 3.240836,-3.59169 0.549738,-4.74186 -1.697141,-0.72535 -1.771079,-0.78781 -1.86032,-1.57162 -0.124619,-1.09457 -1.021588,-1.95769 -2.034447,-1.95769 -1.015249,0 -1.683645,0.66853 -1.885043,1.88541 -0.129378,0.78173 -0.349734,0.99139 -1.772483,1.68646 -1.782437,0.8708 -2.42524,1.75222 -2.131462,2.92273 0.208539,0.83089 1.439098,1.6506 2.81754,1.87685 0.885422,0.14532 0.992187,0.24681 0.992187,0.94313 0,0.84741 1.239441,2.32708 1.949267,2.32708 0.221361,0 0.716106,-0.26977 1.099431,-0.59949 z m -19.58115,-7.39611 1.137293,-0.55254 1.546016,0.62886 c 2.818614,1.1465 4.5773,0.66486 5.136033,-1.40657 0.166926,-0.61885 0.238697,-1.67424 0.159489,-2.3453 -0.131488,-1.11399 -0.05342,-1.34068 0.897511,-2.60625 0.85253,-1.13461 1.041527,-1.60212 1.041527,-2.57634 0,-0.98116 -0.139345,-1.32036 -0.793387,-1.93133 -0.449654,-0.42004 -1.369555,-0.87936 -2.123258,-1.06017 -1.201668,-0.28827 -1.446598,-0.48261 -2.540733,-2.0159 -1.34571,-1.88584 -1.795163,-2.21594 -3.017218,-2.21594 -1.167545,0 -2.196864,0.68153 -3.037207,2.01099 -0.973066,1.53943 -1.352172,1.84105 -3.018642,2.4016 -2.659454,0.89455 -3.239272,2.95899 -1.507916,5.36891 0.873167,1.21538 0.957199,1.48881 0.958101,3.11755 0.0021,3.67824 1.826657,4.80305 5.162391,3.18243 z m 32.05967,-8.45468 c 0.555196,-0.52158 0.612365,-0.80564 0.612365,-3.04271 v -2.46742 h 1.528627 c 2.377063,0 3.583193,-1.17627 2.792473,-2.72335 -0.46026,-0.9005 -1.29533,-1.2454 -3.015408,-1.2454 H 98.29084 v -1.80151 c 0,-2.05503 -0.296344,-2.61758 -1.503815,-2.8547 -0.681284,-0.13379 -0.972193,-0.0356 -1.521354,0.51358 -0.587672,0.58767 -0.678998,0.90705 -0.678998,2.37459 v 1.69559 l -1.775693,0.14254 c -1.407014,0.11294 -1.873953,0.26388 -2.248958,0.72699 -1.268579,1.56663 0.07692,3.17167 2.658801,3.17167 h 1.31477 l 0.09169,2.48629 c 0.0733,1.98772 0.192757,2.59787 0.595714,3.04271 0.649862,0.71741 1.680176,0.70949 2.455482,-0.0189 z m -42.701211,-5.71813 c 0.929069,-0.96974 1.150678,-2.13452 0.606375,-3.18709 -0.527711,-1.02048 -1.151908,-1.3674 -2.460281,-1.3674 -1.292587,0 -2.070237,0.54633 -2.460395,1.72851 -0.617254,1.8703 0.576382,3.54656 2.533065,3.55727 0.83525,0.005 1.23248,-0.15851 1.781236,-0.73129 z m -10.705821,0.0506 c 0.473741,-0.33182 0.585282,-0.6283 0.521893,-1.38719 -0.169421,-2.0283 -2.880506,-2.09531 -3.075789,-0.076 -0.154646,1.59908 1.228521,2.39154 2.553896,1.46321 z m 69.860617,-0.39007 c 1.03572,-1.85417 -1.22664,-3.44595 -2.74278,-1.92981 -0.53074,0.53074 -0.50545,1.65594 0.0511,2.27087 0.66778,0.73789 2.19729,0.54409 2.69173,-0.34106 z m -30.062574,-1.03499 c 2.29925,-2.5505 -1.364768,-6.15543 -3.790664,-3.72953 -1.306814,1.30681 -0.94447,3.85728 0.643975,4.53282 0.98721,0.41984 2.359972,0.0694 3.146689,-0.80329 z" /><path
           style="fill:#ff9900;stroke-width:0.264583"
           d="m 64.424175,146.29594 c 0,-0.97372 -0.166915,-1.52861 -0.661459,-2.19892 -0.878043,-1.19012 -0.836019,-1.48886 0.26034,-1.85069 0.513358,-0.16942 1.363305,-0.81966 1.918229,-1.4675 1.0712,-1.25057 1.228074,-1.24541 2.147088,0.0706 0.327798,0.4694 1.125733,1.08778 1.77319,1.37418 1.333926,0.59006 1.422072,0.8309 0.58837,1.60762 -0.410491,0.38243 -0.630857,0.96651 -0.727604,1.92853 l -0.13878,1.37996 -1.984375,0.0135 c -1.091406,0.007 -2.252265,0.1106 -2.579687,0.2293 -0.565962,0.20518 -0.595312,0.15161 -0.595312,-1.08656 z"
           id="path4134" /><path
           id="path4133"
           style="fill:#ff9900;stroke-width:0.264583"
           d="m 116.62109,146.50586 c -2.25243,0.0318 -4.67208,0.37818 -6.41033,1.94533 -0.65169,0.56043 -1.27352,1.15613 -1.91388,1.73045 0.85567,0.46002 2.04164,0.55133 2.57812,1.44531 0.21761,1.0773 -0.91542,1.76872 -1.57897,2.42574 -0.68893,0.51149 -0.5848,1.51069 0.016,2.04593 1.23043,1.30302 2.60518,2.45917 3.90476,3.6924 0.89406,-0.96725 1.62714,-2.07856 2.54687,-3.01563 0.75447,-0.66072 2.18252,-0.1904 2.10547,0.90039 -0.24679,1.20733 -1.4244,1.90876 -2.09612,2.87768 -0.43329,0.43518 -0.8346,1.18566 -0.20844,1.65085 0.64817,0.57097 1.47812,1.1676 2.3493,1.19115 1.17968,-0.68549 2.04301,-1.81505 2.99628,-2.77632 1.54817,-1.63491 2.75808,-3.71074 2.81471,-6.01387 0.12019,-1.63895 0.0833,-3.3856 -0.85089,-4.80812 -0.61762,-1.283 -1.58727,-2.47519 -3.00875,-2.88113 -1.03218,-0.40528 -2.14928,-0.44584 -3.24414,-0.41016 z" /><path
           style="fill:#ff9900;stroke-width:0.264583"
           d="m 65.561626,172.80349 c -0.312282,-0.21874 -0.708538,-0.82417 -0.880565,-1.34542 -0.291335,-0.88276 -0.262125,-1.00059 0.426128,-1.71897 0.456049,-0.47601 1.01015,-0.77125 1.447471,-0.77125 0.868051,0 2.102848,0.92448 2.102848,1.57439 0,0.93743 -0.76903,2.32615 -1.378575,2.48944 -0.888269,0.23794 -1.090088,0.21112 -1.717307,-0.22819 z"
           id="path4132" /><path
           id="path4131"
           style="fill:#ff9900;stroke-width:0.264583"
           d="m 100.66016,158.93359 c -1.392046,0.0999 -2.189421,1.45485 -3.115048,2.32698 -5.593985,6.05732 -11.443257,11.87816 -16.929875,18.03384 -0.355751,0.49623 -1.227739,1.14106 -0.640628,1.77395 0.740735,0.7447 2.101114,1.1654 2.914842,0.28736 1.676427,-1.63725 3.155455,-3.47396 4.797225,-5.15079 4.272336,-4.62343 8.721515,-9.07958 12.990124,-13.70464 0.60433,-0.80496 1.62796,-1.60911 1.49366,-2.71482 -0.16802,-0.63074 -0.93757,-0.82282 -1.5103,-0.85188 z" /><path
           id="path4130"
           style="fill:#ff9900;stroke-width:0.264583"
           d="m 104.5,163.00977 c -0.81461,0.0805 -1.57539,0.75267 -1.80859,1.52343 -0.0109,0.70621 0.39594,1.32477 0.61132,1.97657 -5.219541,5.24741 -10.362913,10.56953 -15.419409,15.97417 -0.844205,0.95436 -1.836051,1.79982 -2.643326,2.76934 -0.431818,0.72722 0.355232,1.41228 1.068599,1.39711 0.880146,0.12486 1.892392,0.004 2.415343,-0.81093 5.372352,-5.56314 10.635771,-11.23286 15.943273,-16.85433 0.89493,-0.98699 2.12743,-1.79209 2.60427,-3.07888 -0.007,-1.02045 -0.91153,-1.79781 -1.62976,-2.42396 -0.32709,-0.25276 -0.7128,-0.49253 -1.14172,-0.47252 z" /><path
           id="path16"
           style="fill:#ff9900;stroke-width:0.264583"
           d="m 109.30664,168.26172 c -6.40395,6.592 -12.728397,13.26932 -19.091075,19.89381 -0.439615,0.40876 -1.212275,0.93426 -0.740956,1.61205 0.482761,0.61299 1.056353,1.32955 1.876953,1.44922 1.106291,-0.66836 1.928132,-1.72901 2.878706,-2.59685 4.88476,-4.94408 9.709402,-9.94858 14.503472,-14.98057 0.93029,-1.05156 2.01704,-2.00583 2.74087,-3.21555 0.17768,-0.91392 -0.80533,-1.53291 -1.35718,-2.1154 -0.34929,-0.36605 -0.47397,-0.56546 -0.81079,-0.0467 z" /><path
           style="fill:#000000;stroke-width:0.264583"
           d="m 74.044964,236.72285 c -2.48875,-0.67455 -4.187417,-1.55992 -5.835139,-3.04136 l -1.349859,-1.21365 H 51.608613 c -14.556318,0 -15.296085,-0.0233 -16.232998,-0.51108 -1.949622,-1.01505 -2.762688,-3.36216 -2.172136,-6.27038 0.275574,-1.35709 0.492502,-1.71973 1.720266,-2.87583 1.087211,-1.02374 1.425501,-1.53233 1.495907,-2.24896 0.08928,-0.90867 0.07114,-0.92748 -0.967351,-1.00285 -3.014702,-0.21882 -6.373609,-2.1244 -8.374162,-4.75084 -1.881497,-2.47014 -2.445561,-4.161 -2.449651,-7.34318 -0.0049,-3.84962 1.040741,-6.33062 3.762387,-8.92663 2.536495,-2.41941 6.157446,-3.89262 9.589962,-3.90175 l 1.470199,-0.004 0.459491,-1.91454 c 0.547476,-2.28115 1.510761,-4.02739 2.580508,-4.67795 l 0.779285,-0.47391 -1.988145,-0.15036 c -3.366016,-0.25457 -5.752793,-1.65518 -7.164975,-4.20457 l -0.781566,-1.41095 -0.08303,-6.61458 -0.08303,-6.61459 -0.85475,-0.79375 c -1.916975,-1.78016 -3.6348,-4.62906 -4.307538,-7.14375 -0.472441,-1.76598 -0.454443,-5.74467 0.03448,-7.62177 2.536088,-9.7367 13.951807,-14.33711 22.246287,-8.96501 8.050212,5.21389 9.424207,16.11042 2.904205,23.03191 l -1.335789,1.41805 -0.06839,6.59326 c -0.06182,5.95918 -0.119351,6.70168 -0.598239,7.72047 -0.560792,1.19303 -1.499441,2.30368 -2.78593,3.29642 -0.588431,0.45407 -0.650412,0.57202 -0.251603,0.47881 2.108541,-0.4928 6.253824,-0.73789 10.145638,-0.59987 4.706779,0.16693 6.693847,0.50889 10.448859,1.79818 1.29414,0.44435 2.442485,0.70853 2.551877,0.58706 0.109392,-0.12146 0.448299,-1.91606 0.753128,-3.98798 0.304829,-2.07194 0.707612,-4.05622 0.895075,-4.40953 0.18746,-0.35331 2.907252,-3.36106 6.043977,-6.68389 3.136728,-3.32284 8.370924,-8.89902 11.631549,-12.39152 3.260624,-3.4925 6.65839,-7.12391 7.550589,-8.0698 0.892198,-0.94588 3.001331,-3.19296 4.686981,-4.9935 4.39844,-4.69826 6.0231,-5.71343 10.16967,-6.35455 8.00687,-1.23798 14.86752,5.03808 14.28572,13.06845 -0.232,3.20232 -1.33411,5.56716 -4.06287,8.71782 -0.9776,1.12874 -1.08514,1.3668 -0.77693,1.71979 1.12252,1.28563 1.62674,3.38246 1.1105,4.61801 -0.49635,1.18791 -8.46152,9.56334 -9.89235,10.40187 -1.5504,0.90859 -3.52013,0.95398 -4.94392,0.11392 l -1.02234,-0.6032 -2.60867,2.59684 -2.60867,2.59685 2.719,0.32205 c 3.21777,0.38113 7.06026,1.19317 8.53985,1.80475 2.08815,0.86312 3.01872,2.24285 3.78646,5.61408 l 0.46657,2.0487 1.45124,0.15716 c 6.76269,0.73234 11.89053,6.24718 11.89053,12.78794 0,1.37001 -0.63681,3.87565 -1.38345,5.44344 -0.8697,1.82618 -3.81913,4.63614 -5.80673,5.53216 -0.92035,0.4149 -2.07252,0.84031 -2.56038,0.94537 l -0.88702,0.19101 0.18614,1.48977 c 0.10237,0.81937 0.48651,2.08252 0.85363,2.80701 0.49174,0.97039 0.70082,1.87728 0.79408,3.44419 0.11428,1.91998 0.0654,2.21644 -0.50207,3.04669 -0.34577,0.50586 -1.03041,1.19047 -1.52141,1.52135 l -0.89271,0.60161 -15.63744,0.008 -15.637438,0.008 -0.926042,0.93155 c -3.174632,3.1935 -8.744052,4.56805 -13.397959,3.30665 z m 8.236915,-4.40244 c 0.955805,-0.46928 2.22939,-1.43558 3.205723,-2.43225 l 1.619893,-1.65365 h 15.101675 15.10166 l 0.41188,-0.58804 c 0.56758,-0.81033 0.51573,-1.95394 -0.11729,-2.58696 -0.51829,-0.51829 -0.88194,-0.52917 -17.693756,-0.52917 H 82.747075 l -1.290098,0.72754 c -1.156245,0.65206 -1.550879,0.72755 -3.803636,0.72761 -2.245527,6e-5 -2.654377,-0.0775 -3.834352,-0.72754 l -1.320814,-0.72761 H 55.484566 38.470956 l -0.678998,0.679 c -0.543454,0.54346 -0.646371,0.84212 -0.515567,1.49614 0.323467,1.61733 -0.601538,1.52903 16.017218,1.52903 h 15.262973 l 1.210379,1.40198 c 1.136386,1.31627 3.437787,2.81271 5.202142,3.38259 0.384924,0.12433 1.830956,0.19318 3.213404,0.153 2.159175,-0.0628 2.737117,-0.18283 4.099372,-0.85167 z M 80.10974,220.87217 c 3.286014,-2.19774 7.12656,-3.58781 12.240971,-4.43056 3.3586,-0.55342 13.872949,-0.35114 19.830749,0.38152 2.18282,0.26843 4.04062,0.44924 4.12844,0.4018 0.14047,-0.0759 -0.21303,-3.02258 -0.38298,-3.19253 -0.0362,-0.0362 -0.7152,0.11132 -1.5088,0.32791 -1.66449,0.4543 -5.88569,0.50757 -9.24811,0.11672 -5.1347,-0.59686 -13.143331,-0.24191 -19.57917,0.86777 -1.091406,0.18819 -2.187141,0.3002 -2.434963,0.24893 -0.529976,-0.10966 -0.840449,-0.91353 -0.62049,-1.60656 0.236686,-0.74574 1.224346,-1.07329 5.420373,-1.79765 5.455523,-0.94179 11.407203,-1.09702 18.76513,-0.48942 5.39312,0.44535 5.81412,0.44685 7.25905,0.0259 0.84364,-0.24578 1.59898,-0.61649 1.67853,-0.82379 0.0796,-0.2073 -0.0437,-1.77991 -0.27395,-3.49469 -0.3301,-2.45875 -2.01243,-16.7812 -2.01243,-17.13276 0,-0.0452 -0.92273,-0.32963 -2.05052,-0.63198 -3.1116,-0.83421 -6.80006,-1.35807 -9.57031,-1.35926 l -2.49271,-0.001 -3.785073,3.93759 c -4.194019,4.36302 -4.11122,4.31154 -9.0122,5.60281 -1.715667,0.45204 -5.7126,1.53334 -8.882073,2.40291 -3.3979,0.93223 -5.982726,1.51119 -6.298916,1.41083 -0.294931,-0.0936 -0.720442,-0.55648 -0.945581,-1.02859 -0.375007,-0.7864 -0.363652,-1.15441 0.135408,-4.38761 0.299612,-1.94107 0.490379,-3.61719 0.423926,-3.72471 -0.06645,-0.10752 -1.017312,-0.56871 -2.11302,-1.02485 -5.995694,-2.49602 -13.264081,-2.89984 -21.305779,-1.18372 -1.81043,0.38635 -3.328201,0.7351 -3.372823,0.77499 -0.113099,0.10113 -0.700585,4.32554 -1.765969,12.69847 -1.021194,8.02566 -1.084353,7.52979 1.03165,8.09957 0.789963,0.21272 2.411179,0.17177 6.490467,-0.16392 6.941174,-0.5712 11.894091,-0.477 12.686592,0.2413 0.677413,0.61398 0.7107,1.26107 0.09308,1.8094 -0.374073,0.33211 -1.530403,0.44123 -6.01927,0.56803 -3.055938,0.0863 -7.226136,0.23023 -9.267108,0.31979 -3.09313,0.13572 -3.882704,0.091 -4.743198,-0.26851 -0.567788,-0.23724 -1.115121,-0.33931 -1.216298,-0.22683 -0.101174,0.11248 -0.261543,0.90457 -0.356378,1.7602 l -0.172421,1.5557 0.797203,-0.15944 c 0.438462,-0.0877 3.030929,-0.41262 5.761035,-0.72206 6.863212,-0.7779 14.696241,-0.62495 18.88932,0.36885 4.087378,0.96874 7.582842,2.45947 10.416177,4.44225 0.582083,0.40734 1.151681,0.74593 1.265775,0.75242 0.114093,0.006 1.066593,-0.56282 2.116666,-1.26513 z m 25.13722,-16.72172 c -0.83885,-0.33413 -1.05529,-1.45555 -1.1096,-5.749 -0.0472,-3.73428 -0.041,-3.77807 0.63808,-4.45711 0.53153,-0.53153 0.84644,-0.64778 1.40007,-0.51686 1.48778,0.35177 1.64033,0.85749 1.64033,5.43795 0,3.59553 -0.0642,4.249 -0.46302,4.7102 -0.57753,0.66792 -1.34566,0.87756 -2.10586,0.57476 z m -36.884182,17.23952 c 0.473937,-0.13278 -0.02072,-0.3223 -1.984375,-0.76027 -4.705323,-1.04947 -7.979605,-1.26955 -13.66289,-0.91837 -8.68328,0.53657 -12.103837,0.90001 -12.103837,1.28606 0,0.26739 1.028067,0.36294 4.564062,0.4242 9.172405,0.1589 22.572262,0.14063 23.18704,-0.0316 z m 44.934672,-6e-5 c 4.9993,-0.23899 4.29345,-0.65534 -2.04203,-1.20449 -11.0471,-0.95757 -16.215981,-0.85197 -21.69583,0.44322 l -2.513541,0.59408 3.571874,0.14406 c 5.109133,0.20605 18.565837,0.21977 22.679527,0.0231 z m -76.001106,-7.55085 c 0.103825,-0.85956 0.247856,-1.7168 0.320066,-1.90498 0.07882,-0.20541 -0.232074,-0.49397 -0.777917,-0.72203 -1.299897,-0.54313 -2.490488,-1.80622 -2.819518,-2.99119 -0.396326,-1.42733 -0.361083,-1.89128 0.237033,-3.12033 0.553694,-1.13777 2.411178,-2.53093 3.374451,-2.53093 0.77773,0 1.038945,-0.47277 1.206545,-2.18369 0.1328,-1.35563 0.08868,-1.55457 -0.403164,-1.8178 -1.462002,-0.78244 -5.256547,0.57403 -7.287724,2.60521 -4.007575,4.00757 -3.162979,10.62215 1.721842,13.48484 1.4681,0.86037 3.829464,1.45966 4.073437,1.0338 0.0914,-0.15954 0.251124,-0.99335 0.354949,-1.8529 z m 85.377326,0.85809 c 3.66067,-1.95112 5.38821,-6.4909 3.935,-10.34073 -1.10032,-2.91496 -4.88875,-6.02015 -7.34475,-6.02015 h -0.90282 l 0.173,1.52135 c 0.23899,2.10162 0.34603,2.39643 0.93837,2.58444 0.87012,0.27616 2.09639,1.46112 2.66452,2.57475 1.08379,2.12441 0.45436,4.57329 -1.46681,5.7068 -0.86087,0.50793 -0.88037,0.55709 -0.66444,1.67474 0.12236,0.6333 0.22766,1.59794 0.23399,2.14364 0.0145,1.24785 0.34438,1.26888 2.43394,0.15516 z M 82.945134,194.90414 c 2.659973,-0.72368 4.876689,-1.35617 4.926036,-1.40551 0.04935,-0.0494 -0.49289,-0.86353 -1.204965,-1.80929 l -1.294688,-1.71957 -2.073151,-0.45021 c -1.140232,-0.24762 -2.23589,-0.5536 -2.434791,-0.67996 -0.209748,-0.13324 -0.437372,-0.96138 -0.541941,-1.97168 -0.09916,-0.95806 -0.263379,-1.82502 -0.364924,-1.92656 -0.364516,-0.36452 -3.70863,-1.66635 -3.929623,-1.52977 -0.124206,0.0768 -0.227375,0.5195 -0.229261,0.98385 -0.0019,0.46436 -0.238469,2.33256 -0.525735,4.15157 -0.701622,4.44275 -0.694833,4.54702 0.327244,5.02709 0.532871,0.25028 1.043813,0.80764 1.383337,1.509 0.296109,0.61167 0.670626,1.11769 0.832263,1.12448 0.161636,0.007 2.470227,-0.57976 5.130199,-1.30344 z m 11.465189,-7.07629 c 3.140347,-3.28271 9.675077,-9.98296 16.816537,-17.24248 1.94883,-1.98104 4.36892,-4.5544 5.37799,-5.71856 1.00906,-1.16417 2.56972,-2.9353 3.46813,-3.93584 0.89842,-1.00055 1.90073,-2.31462 2.22735,-2.92017 0.75601,-1.40158 1.22499,-3.9132 1.01712,-5.44712 -0.39251,-2.89632 -2.78139,-5.80526 -5.65868,-6.89059 -2.03582,-0.76793 -5.16102,-0.64462 -7.07574,0.27917 -1.6238,0.78343 -5.43935,4.61131 -5.23582,5.25273 0.10371,0.3268 0.0763,0.34762 -0.11209,0.0851 -0.18888,-0.26319 -0.62833,0.0561 -1.8109,1.31585 -3.33982,3.55769 -5.149533,5.50885 -8.181761,8.82126 -1.731756,1.89177 -5.06821,5.46365 -7.414342,7.9375 -6.4238,6.77351 -9.910193,10.55452 -9.910193,10.74767 0,0.0954 0.922734,0.48457 2.050521,0.86485 l 2.05052,0.69143 1.058334,-1.13566 c 0.582083,-0.62461 1.756595,-1.90471 2.610024,-2.84468 1.868937,-2.05844 4.507762,-4.8541 8.615645,-9.12771 1.684007,-1.75195 3.99923,-4.16297 5.144942,-5.35782 1.14571,-1.19485 2.19942,-2.17245 2.34156,-2.17245 0.35887,0 2.05762,1.73219 2.05762,2.09813 0,0.29776 -4.459211,5.25487 -6.085891,6.76541 -0.470127,0.43656 -3.667876,3.82984 -7.10611,7.54062 -7.722105,8.33423 -7.180915,7.73297 -7.180915,7.97809 0,0.40216 0.94955,0.6964 2.550205,0.79024 l 1.624165,0.0952 3.932084,-4.11327 c 2.162649,-2.2623 5.956149,-6.24197 8.430002,-8.84371 5.71399,-6.00937 6.97422,-7.28364 7.20337,-7.28364 0.10172,0 0.68933,0.49503 1.30581,1.10006 l 1.12088,1.10006 -0.51087,0.64945 c -0.28097,0.35721 -3.29266,3.52335 -6.69265,7.03588 -3.399978,3.51254 -6.846292,7.1008 -7.658468,7.97393 -0.812178,0.87312 -2.308079,2.47261 -3.324227,3.55441 l -1.84754,1.96692 0.669189,0.87735 c 0.368054,0.48255 0.724527,0.87736 0.792165,0.87736 0.06764,0 1.571551,-1.51425 3.342034,-3.365 z m 15.389887,-23.68128 c -3.74135,-3.38603 -6.46973,-6.09942 -6.62498,-6.5886 -0.35109,-1.10617 1.12324,-2.18913 2.25143,-1.65376 0.89008,0.42237 7.65949,6.82503 8.38229,7.92815 0.41268,0.62984 0.40745,0.70842 -0.0919,1.38032 -0.9171,1.23389 -1.57258,1.05548 -3.9168,-1.06611 z m 4.52179,-3.91839 -0.96375,-1.06675 0.8375,-1.24836 c 1.08233,-1.61329 1.47345,-1.90981 2.5192,-1.90981 0.94986,0 1.68422,0.76145 1.68422,1.74636 0,0.53029 -2.48252,3.54531 -2.91916,3.54531 -0.10685,0 -0.62795,-0.48004 -1.15801,-1.06675 z m -6.59982,-6.19666 c -0.94416,-0.87502 -0.88388,-1.3463 0.32711,-2.5573 1.15525,-1.15524 2.29438,-1.35933 3.03283,-0.54335 0.77939,0.86121 0.37014,1.96678 -1.14063,3.08139 -1.12268,0.82829 -1.34428,0.83021 -2.21931,0.0193 z m -62.188471,29.05761 c 1.259448,-0.62564 1.895001,-1.51086 2.116793,-2.94835 l 0.174382,-1.13019 -5.26025,0.0719 -5.26025,0.0719 0.07874,0.79375 c 0.0433,0.43656 0.203005,1.11254 0.354886,1.50218 0.299138,0.7674 1.873567,1.9395 2.898068,2.1575 1.219711,0.25954 3.90321,-0.0246 4.897634,-0.51861 z m 70.110541,-9.9957 c 3.73863,-3.89215 4.59242,-4.99818 4.09544,-5.30533 -0.33794,-0.20886 -9.01343,8.53544 -9.01343,9.08492 0,0.97011 1.35846,-0.0739 4.91799,-3.77959 z m -68.881012,2.58376 c 0.963917,-0.15932 0.992187,-0.19582 0.992187,-1.28079 v -1.11679 l -2.182812,-0.16992 c -2.990794,-0.23282 -8.077594,-0.21696 -8.227536,0.0256 -0.06755,0.10931 -0.0591,0.76415 0.01878,1.45521 l 0.141632,1.25647 4.132778,-0.003 c 2.273027,-0.002 4.579263,-0.0767 5.124966,-0.16691 z m 0.904997,-6.44476 c 0.28725,-2.19428 0.431911,-2.48752 2.10694,-4.271 1.057931,-1.12642 2.04447,-2.51598 2.562252,-3.60898 0.762412,-1.6094 0.841957,-2.01478 0.841957,-4.29085 0,-3.91897 -1.42385,-6.87462 -4.383551,-9.09947 -2.09024,-1.57126 -3.790217,-2.11479 -6.596657,-2.10913 -1.948529,0.004 -2.485874,0.11371 -4.022466,0.82183 -5.016805,2.31195 -7.534112,7.5964 -6.150234,12.91087 0.534395,2.05222 1.351076,3.4124 3.105628,5.17243 1.70229,1.70761 1.964836,2.15933 2.062409,3.54853 0.04087,0.58193 0.12068,1.1499 0.177345,1.26215 0.05666,0.11224 2.384841,0.17177 5.173723,0.13229 4.271285,-0.0605 5.078889,-0.13436 5.122654,-0.46867 z"
           id="path14" /></g></g></g></svg>
